<svg width="32" height="32" viewBox="0 0 32 32" fill="none" xmlns="http://www.w3.org/2000/svg">
<g clip-path="url(#clip0)">
<path d="M29.3731 8.32H23.2597L22.8776 6.112C22.8299 4.96 21.8746 4 20.7284 4H11.1761C10.0299 4 9.07463 4.912 9.02687 6.112L8.69254 8.32H2.62687C1.19403 8.32 0 9.52 0 10.96V25.36C0 26.8 1.19403 28 2.62687 28H29.3731C30.806 28 32 26.8 32 25.36V10.96C31.9522 9.52 30.806 8.32 29.3731 8.32ZM3.29353 9.89867C5.80829 9.89867 7.65639 9.89867 10.1711 9.89867C10.427 9.89867 10.6965 9.61657 10.6965 9.37067L11.1741 6.256C11.1741 5.872 11.5085 5.536 11.8905 5.536H20.1095C20.4915 5.536 20.8259 5.872 20.8259 6.256L21.3035 9.89867C21.3035 10.2794 21.7428 10.4747 22.0677 10.4747H28.7542C29.4229 10.4747 29.9483 11.0027 29.9483 11.6747V17.44H22.6388C22.2567 14.08 19.4388 11.44 16 11.44C12.5612 11.44 9.69552 14.08 9.31343 17.44H2.05174V11.0987C2.05174 10.4267 2.62488 9.89867 3.29353 9.89867ZM21.2537 18.16C21.2537 21.088 18.9134 23.44 16 23.44C13.0866 23.44 10.7463 21.088 10.7463 18.16C10.7463 15.232 13.0866 12.88 16 12.88C18.9134 12.88 21.2537 15.232 21.2537 18.16ZM28.7065 25.8933H3.29353C2.62488 25.8933 2.0995 25.3653 2.0995 24.6933V18.88H9.3612C9.74329 22.24 12.5612 24.88 16 24.88C19.4388 24.88 22.2567 22.24 22.6388 18.88H29.9005V24.6933C29.8527 25.3653 29.3274 25.8933 28.7065 25.8933Z" fill="#6432C2"/>
</g>
<defs>
<clipPath id="clip0">
<rect width="32" height="32" fill="white"/>
</clipPath>
</defs>
</svg>
