<svg width="16" height="16" viewBox="0 0 16 16" fill="none" xmlns="http://www.w3.org/2000/svg">
<path fill-rule="evenodd" clip-rule="evenodd" d="M12.4444 2.82353C12.4444 2.07468 12.1635 1.35651 11.6634 0.826993C11.1633 0.297478 10.485 0 9.77778 0H6.22222C5.51498 0 4.8367 0.297478 4.3366 0.826993C3.83651 1.35651 3.55556 2.07468 3.55556 2.82353H2.66667C1.95942 2.82353 1.28115 3.12101 0.781049 3.65052C0.280952 4.18004 0 4.89821 0 5.64706V13.1765C0 13.9253 0.280952 14.6435 0.781049 15.173C1.28115 15.7025 1.95942 16 2.66667 16H13.3333C14.0406 16 14.7189 15.7025 15.219 15.173C15.719 14.6435 16 13.9253 16 13.1765V5.64706C16 4.89821 15.719 4.18004 15.219 3.65052C14.7189 3.12101 14.0406 2.82353 13.3333 2.82353H12.4444ZM9.77778 1.88235H6.22222C5.98647 1.88235 5.76038 1.98151 5.59368 2.15802C5.42698 2.33452 5.33333 2.57391 5.33333 2.82353H10.6667C10.6667 2.57391 10.573 2.33452 10.4063 2.15802C10.2396 1.98151 10.0135 1.88235 9.77778 1.88235ZM2.66667 4.70588H13.3333C13.5691 4.70588 13.7952 4.80504 13.9619 4.98155C14.1286 5.15805 14.2222 5.39744 14.2222 5.64706V13.1765C14.2222 13.4261 14.1286 13.6655 13.9619 13.842C13.7952 14.0185 13.5691 14.1176 13.3333 14.1176H2.66667C2.43092 14.1176 2.20483 14.0185 2.03813 13.842C1.87143 13.6655 1.77778 13.4261 1.77778 13.1765V5.64706C1.77778 5.39744 1.87143 5.15805 2.03813 4.98155C2.20483 4.80504 2.43092 4.70588 2.66667 4.70588Z" fill="#87A1FF"/>
</svg>
