<svg width="20" height="24" viewBox="0 0 20 24" fill="none" xmlns="http://www.w3.org/2000/svg">
<path fill-rule="evenodd" clip-rule="evenodd" d="M9.99989 0C5.3423 0 1.53904 3.95974 1.53904 8.79958V12.0016C1.53904 14.4627 0.611362 16.5432 0.236907 17.3226C-0.516172 18.8901 0.621399 20.7949 2.30588 20.7949H6.23032C6.58797 22.6172 8.14809 24 10.0029 24C11.8577 24 13.4178 22.6172 13.7755 20.7949H17.6999C19.3841 20.7949 20.5148 18.8877 19.7629 17.3226C19.3902 16.5469 18.4683 14.4637 18.4683 12.0016V8.79958C18.4683 3.95901 14.6575 0 9.99989 0ZM9.99989 1.59396C13.819 1.59396 16.9331 4.83044 16.9331 8.79958V12.0016C16.9331 14.8734 17.9816 17.1958 18.3886 18.043C18.6581 18.604 18.3023 19.2009 17.6999 19.2009H2.30588C1.69883 19.2009 1.34213 18.6062 1.61272 18.043C2.01884 17.1977 3.07273 14.8745 3.07273 12.0016V8.79958C3.07273 4.82972 6.18077 1.59396 9.99989 1.59396ZM9.99989 3.19417C7.02772 3.19417 4.61243 5.71061 4.61243 8.79958C4.61689 9.00871 4.69996 9.20771 4.84385 9.35398C4.98774 9.50024 5.18101 9.58214 5.38228 9.58214C5.58355 9.58214 5.77683 9.50024 5.92071 9.35398C6.0646 9.20771 6.14767 9.00871 6.15214 8.79958C6.15214 6.56946 7.85408 4.79594 9.99989 4.79594C10.2043 4.79594 10.4003 4.71156 10.5448 4.56136C10.6893 4.41117 10.7705 4.20746 10.7705 3.99505C10.7705 3.78264 10.6893 3.57894 10.5448 3.42874C10.4003 3.27854 10.2043 3.19417 9.99989 3.19417ZM5.38379 11.1983C5.28269 11.1983 5.18258 11.219 5.08918 11.2592C4.99577 11.2994 4.91091 11.3584 4.83942 11.4327C4.76793 11.507 4.71123 11.5952 4.67254 11.6923C4.63385 11.7893 4.61394 11.8934 4.61394 11.9984C4.61394 12.1035 4.63385 12.2076 4.67254 12.3046C4.71123 12.4017 4.76793 12.4899 4.83942 12.5642C4.91091 12.6385 4.99577 12.6974 5.08918 12.7376C5.18258 12.7778 5.28269 12.7985 5.38379 12.7985C5.48489 12.7985 5.58499 12.7778 5.6784 12.7376C5.7718 12.6974 5.85667 12.6385 5.92815 12.5642C5.99964 12.4899 6.05635 12.4017 6.09504 12.3046C6.13373 12.2076 6.15364 12.1035 6.15364 11.9984C6.15364 11.8934 6.13373 11.7893 6.09504 11.6923C6.05635 11.5952 5.99964 11.507 5.92815 11.4327C5.85667 11.3584 5.7718 11.2994 5.6784 11.2592C5.58499 11.219 5.48489 11.1983 5.38379 11.1983ZM7.83168 20.7949H12.1741C11.8601 21.7312 11.0169 22.3998 10.0029 22.3998C8.98885 22.3998 8.1457 21.7312 7.83168 20.7949Z" fill="#6432C2"/>
</svg>
