<svg width="16" height="24" viewBox="0 0 16 24" fill="none" xmlns="http://www.w3.org/2000/svg">
<path d="M8 0L14.5194 5.68296V22.7762H16V24C10.6669 24 5.33344 24 0 24V22.7762H1.4806V5.68296L8 0ZM2.63905 19.0132L7.45617 17.3525V14.776L2.63905 16.4367V19.0132ZM8.54413 17.3525L13.3606 19.0132V16.4367L8.54413 14.776V17.3525ZM13.3606 20.2196L8.54413 18.559V22.7762H13.3606V20.2196ZM7.45617 18.559L2.63905 20.2196V22.7762H7.45617V18.559ZM2.63905 15.2302L7.45617 13.5695V10.993L2.63905 12.6537V15.2302ZM8.54413 13.5695L13.3606 15.2302V12.6537L8.54413 10.993V13.5695ZM2.63905 11.4472L7.45617 9.78657V7.21006L2.63905 8.8707V11.4472ZM8.54413 9.78657L13.3606 11.4472V8.8707L8.54413 7.21006V9.78657ZM2.63905 7.66424L7.45617 6.00359V2.05572L2.63905 6.25501V7.66424ZM8.54413 6.00359L13.3606 7.66424V6.25501L8.54413 2.05605V6.00359Z" fill="#6432C2"/>
</svg>
