<svg width="80" height="56" viewBox="0 0 80 56" fill="none" xmlns="http://www.w3.org/2000/svg">
<path d="M66.6544 21.0731C62.957 6.3438 48.0194 -2.59929 33.2901 1.09812C21.7795 3.98765 13.4215 13.9361 12.5603 25.7725C4.38732 27.1203 -1.14567 34.8383 0.202155 43.0113C1.40031 50.2773 7.69618 55.5984 15.0601 55.5692H27.5587V50.5697H15.0601C9.53785 50.5697 5.06115 46.093 5.06115 40.5708C5.06115 35.0486 9.53785 30.5719 15.0601 30.5719C16.4407 30.5719 17.5598 29.4528 17.5598 28.0722C17.5473 15.6472 27.6098 5.56451 40.0348 5.55217C50.7905 5.54139 60.0494 13.1452 62.1299 23.6977C62.3354 24.7513 63.1904 25.5562 64.2547 25.6975C71.0886 26.6706 75.8395 32.9995 74.8665 39.8333C73.9927 45.9698 68.7532 50.5388 62.5549 50.5697H52.556V55.5692H62.5549C72.2188 55.54 80.0292 47.6821 79.9998 38.0181C79.9754 29.9737 74.4692 22.9821 66.6544 21.0731Z" fill="#6432C2"/>
</svg>
