<svg width="16" height="16" viewBox="0 0 16 16" fill="none" xmlns="http://www.w3.org/2000/svg">
<path d="M6.11442 8L0.390525 2.27611C-0.130175 1.75541 -0.130175 0.911226 0.390525 0.390525C0.911226 -0.130175 1.75541 -0.130175 2.27611 0.390525L8 6.11438L13.7239 0.390525C14.2446 -0.130175 15.0888 -0.130175 15.6095 0.390525C16.1302 0.911226 16.1302 1.75541 15.6095 2.27611L9.88558 8L15.6095 13.7239C16.1302 14.2446 16.1302 15.0888 15.6095 15.6095C15.0888 16.1302 14.2446 16.1302 13.7239 15.6095L8 9.88562L2.27611 15.6095C1.75541 16.1302 0.911226 16.1302 0.390525 15.6095C-0.130175 15.0888 -0.130175 14.2446 0.390525 13.7239L6.11442 8Z" fill="#6432C2"/>
</svg>
