<svg width="32" height="32" viewBox="0 0 32 32" xmlns="http://www.w3.org/2000/svg">
<path d="M24.6816 24.6436H11.5537C11.293 24.6436 11.0815 24.8552 11.0815 25.116C11.0815 25.3767 11.293 25.5881 11.5537 25.5881H24.6814C24.9424 25.5881 25.1538 25.3767 25.1538 25.116C25.1538 24.8552 24.9424 24.6436 24.6816 24.6436Z" fill="#545454"/>
<path d="M24.6816 21.3262H11.5537C11.293 21.3262 11.0815 21.5376 11.0815 21.7983C11.0815 22.0593 11.293 22.2708 11.5537 22.2708H24.6814C24.9424 22.2708 25.1538 22.0593 25.1538 21.7983C25.1538 21.5376 24.9424 21.3262 24.6816 21.3262Z" fill="#545454"/>
<path d="M11.0815 18.479C11.0815 18.74 11.293 18.9514 11.5537 18.9514H19.9075C20.1685 18.9514 20.3799 18.74 20.3799 18.479C20.3799 18.2183 20.1685 18.0068 19.9075 18.0068H11.5537C11.293 18.0068 11.0815 18.2183 11.0815 18.479Z" fill="#545454"/>
<path d="M29.6665 6.1958L28.8149 5.27148V1.96558C28.8149 0.881836 27.9307 0 26.8435 0H5.71826C4.6311 0 3.74683 0.881836 3.74683 1.96558V5.69458H2.88306C1.84473 5.69458 1 6.53979 1 7.57861V13.2961C1 14.335 1.84473 15.1802 2.88306 15.1802H3.74683V28.3552C3.74683 29.439 4.6311 30.3208 5.71826 30.3208H6.79736C6.91357 31.2659 7.72095 32 8.69727 32H29.0215C30.0784 32 30.938 31.1414 30.938 30.0859V9.68457C30.938 8.01489 30.8877 7.52344 29.6665 6.1958ZM29.9739 8.71265H26.4358C25.8999 8.71265 25.4639 8.27783 25.4639 7.74365L25.467 3.63647C26.0881 3.68262 26.2539 3.86621 26.7983 4.47168C26.8887 4.57227 26.9873 4.68164 27.0969 4.80078L27.9998 5.78076C28.0029 5.78418 28.0061 5.78784 28.0095 5.79126L28.9714 6.83545C29.7214 7.65088 29.9209 7.99316 29.9739 8.71265ZM4.69141 1.96558C4.69141 1.40259 5.1521 0.94458 5.71826 0.94458H26.8435C27.4097 0.94458 27.8704 1.40259 27.8704 1.96558V4.24609L27.7917 4.16064C27.6846 4.04468 27.5889 3.93799 27.501 3.84009C26.7246 2.97681 26.3853 2.67822 24.9956 2.67822H24.9954H8.69727C7.64136 2.67822 6.78247 3.53687 6.78247 4.59229V5.69458H4.69141V1.96558ZM29.9934 30.0859C29.9934 30.6204 29.5574 31.0554 29.0215 31.0554H8.69727C8.16235 31.0554 7.72705 30.6206 7.72705 30.0859V23.2417C7.72705 22.981 7.51562 22.7695 7.25464 22.7695C6.9939 22.7695 6.78247 22.981 6.78247 23.2417V29.3762H5.71826C5.1521 29.3762 4.69141 28.9182 4.69141 28.3555V15.1802H6.78247V21.0791C6.78247 21.3398 6.9939 21.5513 7.25464 21.5513C7.51562 21.5513 7.72705 21.3398 7.72705 21.0791V15.1802H10.1787C10.4395 15.1802 10.6509 14.9688 10.6509 14.7078C10.6509 14.447 10.4395 14.2356 10.1787 14.2356H2.88306C2.36548 14.2356 1.94458 13.8142 1.94458 13.2961V7.57861C1.94458 7.06055 2.36548 6.63916 2.88306 6.63916H15.3213C15.8396 6.63916 16.2615 7.06055 16.2615 7.57861V13.2961C16.2615 13.8142 15.8396 14.2356 15.3213 14.2356H12.3425C12.0815 14.2356 11.8701 14.447 11.8701 14.7078C11.8701 14.9688 12.0815 15.1802 12.3425 15.1802H15.3213C16.3606 15.1802 17.2061 14.335 17.2061 13.2961V7.57861C17.2061 6.53979 16.3606 5.69458 15.3213 5.69458H7.72705V4.59229C7.72705 4.05762 8.16235 3.6228 8.69727 3.6228H24.5225L24.5193 7.74341C24.5193 8.79883 25.3792 9.65747 26.4358 9.65747H29.9934V9.68457V30.0859Z" fill="#545454"/>
<path d="M5.72803 8.41504H4.59668C4.45776 8.41504 4.3396 8.46362 4.24243 8.56104C4.14526 8.6582 4.09668 8.77808 4.09668 8.9209V12.2656C4.09668 12.4045 4.14429 12.5215 4.2395 12.6167C4.33472 12.7122 4.448 12.7598 4.57886 12.7598C4.70996 12.7598 4.823 12.7122 4.91821 12.6167C5.01367 12.5215 5.06128 12.4084 5.06128 12.2776V11.3076H5.7876C6.22827 11.3076 6.58154 11.1758 6.84741 10.9119C7.11328 10.6479 7.24634 10.3018 7.24634 9.87329C7.24634 9.44092 7.10547 9.0896 6.82373 8.81982C6.54175 8.55005 6.17651 8.41504 5.72803 8.41504ZM6.07935 10.2898C5.96411 10.405 5.82935 10.4624 5.67456 10.4624H5.06128V9.27808H5.68042C5.84326 9.27808 5.979 9.33667 6.08838 9.45361C6.19751 9.5708 6.25195 9.71265 6.25195 9.87915C6.25195 10.0378 6.19458 10.1748 6.07935 10.2898Z" fill="#545454"/>
<path d="M11.2046 9.54858C11.0637 9.24121 10.8662 8.99414 10.6123 8.80762C10.259 8.5498 9.80249 8.4209 9.24292 8.4209H8.24854C8.10938 8.4209 7.99243 8.47046 7.89722 8.56958C7.80176 8.66895 7.75415 8.78198 7.75415 8.90894V12.2239C7.75415 12.3667 7.7998 12.4836 7.89111 12.575C7.99023 12.6624 8.11133 12.7058 8.25439 12.7058H9.32617C9.90552 12.7058 10.3701 12.5491 10.7195 12.2356C11.1838 11.8113 11.416 11.2498 11.416 10.5515C11.416 10.1904 11.3455 9.8562 11.2046 9.54858ZM10.1121 11.4858C9.90552 11.72 9.63184 11.8369 9.29028 11.8369H8.71875V9.29565H9.23682C9.60205 9.29565 9.89087 9.40869 10.1033 9.63501C10.3154 9.86108 10.4216 10.1665 10.4216 10.5515C10.4216 10.9404 10.3184 11.2517 10.1121 11.4858Z" fill="#545454"/>
<path d="M12.5251 12.7715C12.6599 12.7715 12.7742 12.7236 12.8674 12.6284C12.9607 12.5332 13.0073 12.4202 13.0073 12.2893V11.0098H13.9243C14.0554 11.0098 14.1646 10.9673 14.2517 10.8818C14.3391 10.7966 14.3828 10.6943 14.3828 10.5752C14.3828 10.4524 14.3381 10.3481 14.2488 10.2629C14.1594 10.1777 14.0513 10.135 13.9243 10.135H13.0073V9.29565H14.0911C14.2141 9.29565 14.3174 9.2522 14.4006 9.16479C14.4841 9.07764 14.5256 8.97632 14.5256 8.86133C14.5256 8.73438 14.4832 8.62817 14.3977 8.54297C14.3123 8.45752 14.2102 8.41504 14.0911 8.41504H12.531C12.3921 8.41504 12.2749 8.4646 12.1797 8.56372C12.0845 8.66309 12.0369 8.77808 12.0369 8.90894V12.2893C12.0369 12.4204 12.0864 12.5334 12.1858 12.6287C12.2849 12.7236 12.3979 12.7715 12.5251 12.7715Z" fill="#545454"/>
</svg>
