<svg width="14" height="12" viewBox="0 0 14 12" fill="none" xmlns="http://www.w3.org/2000/svg">
<path fill-rule="evenodd" clip-rule="evenodd" d="M11.8081 0.537435C12.0481 0.300778 12.3721 0.167589 12.7101 0.166661C13.0481 0.165734 13.3729 0.297143 13.6142 0.532479C13.8555 0.767814 13.9941 1.08817 13.9998 1.42428C14.0056 1.76039 13.8781 2.08525 13.645 2.32863L6.79822 10.8411C6.68055 10.9671 6.53853 11.0683 6.38065 11.1385C6.22277 11.2087 6.05227 11.2466 5.87935 11.2498C5.70643 11.253 5.53465 11.2214 5.37426 11.1571C5.21387 11.0927 5.06818 10.9968 4.9459 10.8752L0.409413 6.36138C0.283031 6.24425 0.181664 6.103 0.111358 5.94606C0.0410522 5.78912 0.00324758 5.6197 0.000200188 5.44791C-0.0028472 5.27612 0.0289251 5.10548 0.0936211 4.94617C0.158317 4.78686 0.254612 4.64214 0.37676 4.52065C0.498909 4.39916 0.644408 4.30338 0.80458 4.23903C0.964752 4.17468 1.13631 4.14308 1.30903 4.14611C1.48175 4.14914 1.65208 4.18674 1.80987 4.25667C1.96766 4.3266 2.10967 4.42742 2.22744 4.55313L5.81889 8.12358L11.7755 0.574965C11.7861 0.561751 11.7976 0.549215 11.8098 0.537435H11.8081Z" />
</svg>
