<svg width="42" height="42" viewBox="0 0 42 42" fill="none" xmlns="http://www.w3.org/2000/svg">
<rect x="0.5" y="0.5" width="41" height="41" rx="20.5" fill="#6432C2" stroke="#E0E0E0"/>
<path d="M21 21.9C20.7146 21.8968 20.435 21.9776 20.1989 22.1316C19.9627 22.2855 19.7814 22.5052 19.6793 22.7611C19.5771 23.017 19.5591 23.2968 19.6276 23.5628C19.6962 23.8288 19.8479 24.0683 20.0625 24.249V25.5C20.0625 25.7387 20.1613 25.9676 20.3371 26.1364C20.5129 26.3052 20.7514 26.4 21 26.4C21.2486 26.4 21.4871 26.3052 21.6629 26.1364C21.8387 25.9676 21.9375 25.7387 21.9375 25.5V24.249C22.1521 24.0683 22.3038 23.8288 22.3724 23.5628C22.4409 23.2968 22.4229 23.017 22.3207 22.7611C22.2186 22.5052 22.0373 22.2855 21.8011 22.1316C21.565 21.9776 21.2854 21.8968 21 21.9ZM25.6875 18.3V16.5C25.6875 15.3065 25.1936 14.1619 24.3146 13.318C23.4355 12.4741 22.2432 12 21 12C19.7568 12 18.5645 12.4741 17.6854 13.318C16.8064 14.1619 16.3125 15.3065 16.3125 16.5V18.3C15.5666 18.3 14.8512 18.5845 14.3238 19.0908C13.7963 19.5972 13.5 20.2839 13.5 21V27.3C13.5 28.0161 13.7963 28.7028 14.3238 29.2092C14.8512 29.7155 15.5666 30 16.3125 30H25.6875C26.4334 30 27.1488 29.7155 27.6762 29.2092C28.2037 28.7028 28.5 28.0161 28.5 27.3V21C28.5 20.2839 28.2037 19.5972 27.6762 19.0908C27.1488 18.5845 26.4334 18.3 25.6875 18.3ZM18.1875 16.5C18.1875 15.7839 18.4838 15.0972 19.0113 14.5908C19.5387 14.0845 20.2541 13.8 21 13.8C21.7459 13.8 22.4613 14.0845 22.9887 14.5908C23.5162 15.0972 23.8125 15.7839 23.8125 16.5V18.3H18.1875V16.5ZM26.625 27.3C26.625 27.5387 26.5262 27.7676 26.3504 27.9364C26.1746 28.1052 25.9361 28.2 25.6875 28.2H16.3125C16.0639 28.2 15.8254 28.1052 15.6496 27.9364C15.4738 27.7676 15.375 27.5387 15.375 27.3V21C15.375 20.7613 15.4738 20.5324 15.6496 20.3636C15.8254 20.1948 16.0639 20.1 16.3125 20.1H25.6875C25.9361 20.1 26.1746 20.1948 26.3504 20.3636C26.5262 20.5324 26.625 20.7613 26.625 21V27.3Z" fill="white"/>
</svg>
