<svg width="18" height="22" viewBox="0 0 18 22" fill="none" xmlns="http://www.w3.org/2000/svg">
<path d="M9 12.05C8.66701 12.0463 8.34081 12.1405 8.06533 12.3202C7.78984 12.4998 7.57829 12.7561 7.45914 13.0546C7.33999 13.3532 7.31897 13.6796 7.39891 13.9899C7.47885 14.3003 7.65591 14.5797 7.90625 14.7905V16.25C7.90625 16.5285 8.02148 16.7956 8.2266 16.9925C8.43172 17.1894 8.70992 17.3 9 17.3C9.29008 17.3 9.56828 17.1894 9.7734 16.9925C9.97852 16.7956 10.0938 16.5285 10.0938 16.25V14.7905C10.3441 14.5797 10.5212 14.3003 10.6011 13.9899C10.681 13.6796 10.66 13.3532 10.5409 13.0546C10.4217 12.7561 10.2102 12.4998 9.93467 12.3202C9.65919 12.1405 9.33299 12.0463 9 12.05ZM14.4688 7.85V5.75C14.4688 4.35761 13.8926 3.02226 12.867 2.03769C11.8414 1.05312 10.4504 0.5 9 0.5C7.5496 0.5 6.1586 1.05312 5.13301 2.03769C4.10742 3.02226 3.53125 4.35761 3.53125 5.75V7.85C2.66101 7.85 1.82641 8.18187 1.21106 8.77261C0.595702 9.36335 0.25 10.1646 0.25 11V18.35C0.25 19.1854 0.595702 19.9866 1.21106 20.5774C1.82641 21.1681 2.66101 21.5 3.53125 21.5H14.4688C15.339 21.5 16.1736 21.1681 16.7889 20.5774C17.4043 19.9866 17.75 19.1854 17.75 18.35V11C17.75 10.1646 17.4043 9.36335 16.7889 8.77261C16.1736 8.18187 15.339 7.85 14.4688 7.85ZM5.71875 5.75C5.71875 4.91457 6.06445 4.11335 6.67981 3.52261C7.29516 2.93187 8.12976 2.6 9 2.6C9.87024 2.6 10.7048 2.93187 11.3202 3.52261C11.9355 4.11335 12.2812 4.91457 12.2812 5.75V7.85H5.71875V5.75ZM15.5625 18.35C15.5625 18.6285 15.4473 18.8955 15.2421 19.0925C15.037 19.2894 14.7588 19.4 14.4688 19.4H3.53125C3.24117 19.4 2.96297 19.2894 2.75785 19.0925C2.55273 18.8955 2.4375 18.6285 2.4375 18.35V11C2.4375 10.7215 2.55273 10.4545 2.75785 10.2575C2.96297 10.0606 3.24117 9.95 3.53125 9.95H14.4688C14.7588 9.95 15.037 10.0606 15.2421 10.2575C15.4473 10.4545 15.5625 10.7215 15.5625 11V18.35Z" fill="#F6821F"/>
</svg>
