<?xml version="1.0" encoding="utf-8"?>
<!-- Generator: Adobe Illustrator 24.3.0, SVG Export Plug-In . SVG Version: 6.00 Build 0)  -->
<svg version="1.1" id="Camada_1" xmlns="http://www.w3.org/2000/svg" xmlns:xlink="http://www.w3.org/1999/xlink" x="0px" y="0px"
	 viewBox="0 0 333.3 333.3" style="enable-background:new 0 0 333.3 333.3;" xml:space="preserve">
<style type="text/css">
	.st0{fill:#FFFFFF;}
</style>
<path class="st0" d="M289.5,115.9l-68.5,43v-52.8l0,0v-33l-67.5,42.3v33l39.5-24.8v86l109.8-68.8C317,216,267.6,288.5,192.5,302.8
	c-59.1,11.2-118.6-17-147.4-69.7L21.2,248c45,80.2,146.6,108.8,226.9,63.7c75.4-42.3,105.9-135.2,70.3-214L289.5,115.9z"/>
<path class="st0" d="M43.8,217.4l68.5-43v52.8l0,0v33l67.5-42.3v-33l-39.5,24.7v-86L30.5,192.4C16.3,117.2,65.7,44.8,140.9,30.5
	c59-11.2,118.5,17,147.3,69.6L312,85.2c-44.9-80.3-146.4-109-226.8-64C9.7,63.5-20.9,156.6,14.9,235.5L43.8,217.4z"/>
</svg>
