<svg width="24" height="24" viewBox="0 0 24 24" fill="none" xmlns="http://www.w3.org/2000/svg">
<path d="M21.3659 17.6376C20.615 16.8861 19.7376 16.2727 18.774 15.8256C20.1329 14.7246 20.9999 13.0446 20.9999 11.1606C20.9999 7.83666 18.228 5.10967 14.904 5.16067C11.631 5.21167 8.99402 7.87865 8.99402 11.1606C8.99402 13.0446 9.86401 14.7246 11.22 15.8256C10.2561 16.2724 9.37868 16.8858 8.62802 17.6376C6.99003 19.2786 6.06004 21.4446 6.00004 23.7546C5.99924 23.7866 6.00485 23.8184 6.01656 23.8482C6.02826 23.8781 6.04581 23.9052 6.06817 23.9282C6.09054 23.9511 6.11727 23.9693 6.14679 23.9817C6.1763 23.9942 6.20801 24.0006 6.24004 24.0006H7.92003C8.04902 24.0006 8.15702 23.8986 8.16002 23.7696C8.21702 22.0296 8.92202 20.4006 10.161 19.1646C10.795 18.5272 11.5492 18.0219 12.3798 17.6779C13.2104 17.3339 14.101 17.1581 15 17.1606C16.827 17.1606 18.546 17.8716 19.839 19.1646C21.0749 20.4006 21.7799 22.0296 21.8399 23.7696C21.8429 23.8986 21.9509 24.0006 22.0799 24.0006H23.7599C23.792 24.0006 23.8237 23.9942 23.8532 23.9817C23.8827 23.9693 23.9094 23.9511 23.9318 23.9282C23.9542 23.9052 23.9717 23.8781 23.9834 23.8482C23.9951 23.8184 24.0007 23.7866 23.9999 23.7546C23.9399 21.4446 23.0099 19.2786 21.3659 17.6376ZM15 15.0006C13.974 15.0006 13.008 14.6016 12.285 13.8756C11.9222 13.5156 11.6355 13.0863 11.4423 12.6131C11.249 12.1399 11.153 11.6327 11.16 11.1216C11.169 10.1376 11.562 9.18665 12.249 8.48165C12.969 7.74366 13.932 7.33266 14.961 7.32066C15.978 7.31166 16.965 7.70766 17.691 8.41865C18.435 9.14765 18.843 10.1226 18.843 11.1606C18.843 12.1866 18.444 13.1496 17.718 13.8756C17.3618 14.2335 16.9382 14.5172 16.4716 14.7103C16.0051 14.9034 15.5049 15.0021 15 15.0006ZM7.48503 11.9526C7.45803 11.6916 7.44303 11.4276 7.44303 11.1606C7.44303 10.6836 7.48803 10.2186 7.57203 9.76564C7.59303 9.65764 7.53603 9.54665 7.43703 9.50165C7.02903 9.31865 6.65403 9.06665 6.33004 8.74865C5.94826 8.37847 5.64783 7.93278 5.44794 7.44001C5.24804 6.94723 5.15305 6.4182 5.16904 5.88667C5.19604 4.92367 5.58304 4.00868 6.25804 3.31868C6.99903 2.55969 7.99502 2.14569 9.05402 2.15769C10.011 2.16669 10.935 2.53569 11.634 3.18968C11.871 3.41168 12.075 3.65768 12.246 3.92168C12.306 4.01468 12.423 4.05368 12.525 4.01768C13.053 3.83468 13.611 3.70568 14.184 3.64568C14.352 3.62768 14.448 3.44768 14.373 3.29768C13.398 1.3687 11.406 0.0367037 9.10202 0.000703908C5.77504 -0.0502958 3.00306 2.67669 3.00306 5.99767C3.00306 7.88165 3.87005 9.56164 5.22904 10.6626C4.27505 11.1036 3.39605 11.7126 2.63406 12.4746C0.990069 14.1156 0.0600746 16.2816 7.50175e-05 18.5946C-0.000725693 18.6266 0.00489035 18.6585 0.0165924 18.6883C0.0282944 18.7181 0.0458456 18.7453 0.0682118 18.7682C0.090578 18.7911 0.117307 18.8093 0.146823 18.8218C0.176339 18.8342 0.208045 18.8406 0.240074 18.8406H1.92306C2.05206 18.8406 2.16006 18.7386 2.16306 18.6096C2.22006 16.8696 2.92506 15.2406 4.16405 14.0046C5.04604 13.1226 6.12604 12.5106 7.30503 12.2136C7.42203 12.1836 7.50003 12.0726 7.48503 11.9526Z" fill="white"/>
</svg>
