<svg width="16" height="16" viewBox="0 0 16 16" fill="none" xmlns="http://www.w3.org/2000/svg">
<path d="M3.20001 3.63645C3.20001 3.44357 3.2843 3.25858 3.43433 3.12219C3.58436 2.9858 3.78784 2.90918 4.00001 2.90918H12C12.2122 2.90918 12.4157 2.9858 12.5657 3.12219C12.7157 3.25858 12.8 3.44357 12.8 3.63645C12.8 3.82934 12.7157 4.01432 12.5657 4.15071C12.4157 4.2871 12.2122 4.36373 12 4.36373H4.00001C3.78784 4.36373 3.58436 4.2871 3.43433 4.15071C3.2843 4.01432 3.20001 3.82934 3.20001 3.63645Z" fill="#87A1FF"/>
<path d="M3.20001 6.54563C3.20001 6.35275 3.2843 6.16776 3.43433 6.03137C3.58436 5.89498 3.78784 5.81836 4.00001 5.81836H12C12.2122 5.81836 12.4157 5.89498 12.5657 6.03137C12.7157 6.16776 12.8 6.35275 12.8 6.54563C12.8 6.73852 12.7157 6.9235 12.5657 7.05989C12.4157 7.19628 12.2122 7.2729 12 7.2729H4.00001C3.78784 7.2729 3.58436 7.19628 3.43433 7.05989C3.2843 6.9235 3.20001 6.73852 3.20001 6.54563Z" fill="#87A1FF"/>
<path d="M4.00001 8.72705C3.78784 8.72705 3.58436 8.80367 3.43433 8.94006C3.2843 9.07645 3.20001 9.26144 3.20001 9.45432C3.20001 9.64721 3.2843 9.83219 3.43433 9.96858C3.58436 10.105 3.78784 10.1816 4.00001 10.1816H12C12.2122 10.1816 12.4157 10.105 12.5657 9.96858C12.7157 9.83219 12.8 9.64721 12.8 9.45432C12.8 9.26144 12.7157 9.07645 12.5657 8.94006C12.4157 8.80367 12.2122 8.72705 12 8.72705H4.00001Z" fill="#87A1FF"/>
<path d="M3.20001 12.3635C3.20001 12.1706 3.2843 11.9856 3.43433 11.8492C3.58436 11.7129 3.78784 11.6362 4.00001 11.6362H7.20001C7.41219 11.6362 7.61567 11.7129 7.7657 11.8492C7.91573 11.9856 8.00001 12.1706 8.00001 12.3635C8.00001 12.5564 7.91573 12.7414 7.7657 12.8778C7.61567 13.0142 7.41219 13.0908 7.20001 13.0908H4.00001C3.78784 13.0908 3.58436 13.0142 3.43433 12.8778C3.2843 12.7414 3.20001 12.5564 3.20001 12.3635Z" fill="#87A1FF"/>
<path fill-rule="evenodd" clip-rule="evenodd" d="M0 2.18182C0 1.60316 0.252856 1.04821 0.702944 0.63904C1.15303 0.229869 1.76348 0 2.4 0H13.6C14.2365 0 14.847 0.229869 15.2971 0.63904C15.7471 1.04821 16 1.60316 16 2.18182V13.8182C16 14.3968 15.7471 14.9518 15.2971 15.361C14.847 15.7701 14.2365 16 13.6 16H2.4C1.76348 16 1.15303 15.7701 0.702944 15.361C0.252856 14.9518 0 14.3968 0 13.8182V2.18182ZM2.4 1.45455H13.6C13.8122 1.45455 14.0157 1.53117 14.1657 1.66756C14.3157 1.80395 14.4 1.98893 14.4 2.18182V13.8182C14.4 14.0111 14.3157 14.1961 14.1657 14.3324C14.0157 14.4688 13.8122 14.5455 13.6 14.5455H2.4C2.18783 14.5455 1.98434 14.4688 1.83431 14.3324C1.68429 14.1961 1.6 14.0111 1.6 13.8182V2.18182C1.6 1.98893 1.68429 1.80395 1.83431 1.66756C1.98434 1.53117 2.18783 1.45455 2.4 1.45455Z" fill="#87A1FF"/>
</svg>
