<svg width="32" height="32" viewBox="0 0 32 32" fill="none" xmlns="http://www.w3.org/2000/svg">
<circle cx="16" cy="16" r="16" fill="#E0FFC1"/>
<path fill-rule="evenodd" clip-rule="evenodd" d="M20.8081 10.5387C21.0481 10.3021 21.3721 10.1689 21.7101 10.168C22.0481 10.167 22.3729 10.2985 22.6142 10.5338C22.8555 10.7691 22.9941 11.0895 22.9998 11.4256C23.0056 11.7617 22.8781 12.0866 22.645 12.3299L15.7982 20.8424C15.6806 20.9685 15.5385 21.0696 15.3806 21.1398C15.2228 21.2101 15.0523 21.2479 14.8794 21.2511C14.7064 21.2543 14.5346 21.2227 14.3743 21.1584C14.2139 21.094 14.0682 20.9981 13.9459 20.8765L9.40941 16.3627C9.28303 16.2456 9.18166 16.1043 9.11136 15.9474C9.04105 15.7904 9.00325 15.621 9.0002 15.4492C8.99715 15.2774 9.02893 15.1068 9.09362 14.9475C9.15832 14.7882 9.25461 14.6435 9.37676 14.522C9.49891 14.4005 9.64441 14.3047 9.80458 14.2403C9.96475 14.176 10.1363 14.1444 10.309 14.1474C10.4817 14.1505 10.6521 14.1881 10.8099 14.258C10.9677 14.3279 11.1097 14.4287 11.2274 14.5544L14.8189 18.1249L20.7755 10.5763C20.7861 10.5631 20.7976 10.5505 20.8098 10.5387H20.8081Z" fill="#48BE00"/>
</svg>
