<svg width="40" height="40" viewBox="0 0 40 40" fill="none" xmlns="http://www.w3.org/2000/svg">
<circle cx="20" cy="20" r="20" fill="#E0FFC1"/>
<path fill-rule="evenodd" clip-rule="evenodd" d="M26.0101 13.172C26.3101 12.8761 26.7152 12.7097 27.1376 12.7085C27.5601 12.7073 27.9661 12.8716 28.2677 13.1658C28.5694 13.4599 28.7426 13.8604 28.7498 14.2805C28.757 14.7007 28.5976 15.1067 28.3062 15.411L19.7478 26.0515C19.6007 26.2091 19.4232 26.3356 19.2258 26.4233C19.0285 26.5111 18.8153 26.5584 18.5992 26.5624C18.383 26.5664 18.1683 26.527 17.9678 26.4465C17.7673 26.3661 17.5852 26.2462 17.4324 26.0942L11.7618 20.4519C11.6038 20.3055 11.4771 20.1289 11.3892 19.9327C11.3013 19.7366 11.2541 19.5248 11.2503 19.3101C11.2464 19.0953 11.2862 18.882 11.367 18.6829C11.4479 18.4837 11.5683 18.3029 11.721 18.151C11.8736 17.9991 12.0555 17.8794 12.2557 17.799C12.4559 17.7185 12.6704 17.679 12.8863 17.6828C13.1022 17.6866 13.3151 17.7336 13.5123 17.821C13.7096 17.9084 13.8871 18.0345 14.0343 18.1916L18.5236 22.6546L25.9694 13.2189C25.9827 13.2024 25.997 13.1867 26.0122 13.172H26.0101Z" fill="#48BE00"/>
</svg>
