<svg width="48" height="48" viewBox="0 0 48 48" fill="none" xmlns="http://www.w3.org/2000/svg">
<circle cx="24" cy="24" r="24" fill="#FFDFA2"/>
<path d="M26.94 16.0685L33.9761 27.7876C34.9873 29.4707 34.4906 31.6852 32.8663 32.7331C32.3211 33.0861 31.6856 33.2742 31.0361 33.2749H16.9629C15.0509 33.2749 13.5 31.6684 13.5 29.6849C13.5 29.014 13.6817 28.3577 14.0229 27.7876L21.06 16.0685C22.0701 14.3854 24.2058 13.8698 25.8302 14.9177C26.2796 15.2075 26.6597 15.6013 26.94 16.0685ZM24.609 16.9495C24.4805 16.8668 24.3365 16.811 24.1858 16.7855C24.0351 16.76 23.8808 16.7654 23.7322 16.8012C23.5837 16.837 23.4439 16.9026 23.3213 16.9939C23.1988 17.0853 23.0961 17.2005 23.0193 17.3327L15.9833 29.0539C15.869 29.2449 15.8087 29.4634 15.809 29.686C15.809 30.3475 16.3256 30.883 16.964 30.883H31.0351C31.2514 30.883 31.4624 30.82 31.6451 30.7024C31.9073 30.5282 32.0921 30.2596 32.1612 29.9525C32.2302 29.6454 32.1781 29.3235 32.0158 29.0539L24.9797 17.3327C24.8874 17.1784 24.761 17.0473 24.6101 16.9495H24.609ZM24 29.0749C23.7216 29.0749 23.4545 28.9643 23.2576 28.7674C23.0607 28.5704 22.95 28.3034 22.95 28.0249C22.95 27.7464 23.0607 27.4793 23.2576 27.2824C23.4545 27.0855 23.7216 26.9749 24 26.9749C24.2785 26.9749 24.5456 27.0855 24.7425 27.2824C24.9394 27.4793 25.05 27.7464 25.05 28.0249C25.05 28.3034 24.9394 28.5704 24.7425 28.7674C24.5456 28.9643 24.2785 29.0749 24 29.0749ZM24 19.6249C24.2785 19.6249 24.5456 19.7355 24.7425 19.9324C24.9394 20.1293 25.05 20.3964 25.05 20.6749V24.8749C25.05 25.1534 24.9394 25.4204 24.7425 25.6173C24.5456 25.8143 24.2785 25.9249 24 25.9249C23.7216 25.9249 23.4545 25.8143 23.2576 25.6173C23.0607 25.4204 22.95 25.1534 22.95 24.8749V20.6749C22.95 20.3964 23.0607 20.1293 23.2576 19.9324C23.4545 19.7355 23.7216 19.6249 24 19.6249Z" fill="#F6821F"/>
</svg>
