<svg width="48" height="48" viewBox="0 0 48 48" fill="none" xmlns="http://www.w3.org/2000/svg">
<circle cx="24" cy="24" r="24" fill="#6432C2"/>
<path fill-rule="evenodd" clip-rule="evenodd" d="M31.2121 15.8062C31.5722 15.4512 32.0582 15.2514 32.5652 15.25C33.0721 15.2486 33.5593 15.4457 33.9213 15.7987C34.2833 16.1517 34.4911 16.6323 34.4997 17.1364C34.5084 17.6406 34.3172 18.1279 33.9675 18.493L23.6973 31.2616C23.5208 31.4507 23.3078 31.6025 23.071 31.7078C22.8341 31.8131 22.5784 31.8699 22.319 31.8747C22.0597 31.8794 21.802 31.8322 21.5614 31.7356C21.3208 31.6391 21.1023 31.4953 20.9188 31.3128L14.1141 24.5421C13.9245 24.3664 13.7725 24.1545 13.667 23.9191C13.5616 23.6837 13.5049 23.4296 13.5003 23.1719C13.4957 22.9142 13.5434 22.6582 13.6404 22.4193C13.7375 22.1803 13.8819 21.9632 14.0651 21.781C14.2484 21.5987 14.4666 21.4551 14.7069 21.3586C14.9471 21.262 15.2045 21.2146 15.4635 21.2192C15.7226 21.2237 15.9781 21.2801 16.2148 21.385C16.4515 21.4899 16.6645 21.6411 16.8412 21.8297L22.2283 27.1854L31.1632 15.8625C31.1792 15.8426 31.1964 15.8238 31.2147 15.8062H31.2121Z" fill="white"/>
</svg>
