<svg width="16" height="16" viewBox="0 0 16 16" fill="none" xmlns="http://www.w3.org/2000/svg">
<path d="M11.75 10.9414H9C8.74112 10.9414 8.53125 11.1513 8.53125 11.4102C8.53125 11.669 8.74112 11.8789 9 11.8789H11.75C12.0089 11.8789 12.2188 11.669 12.2188 11.4102C12.2188 11.1513 12.0089 10.9414 11.75 10.9414Z" fill="#87A1FF"/>
<path d="M11.75 7.27734H9C8.74112 7.27734 8.53125 7.48722 8.53125 7.7461C8.53125 8.00498 8.74112 8.21486 9 8.21486H11.75C12.0089 8.21486 12.2188 8.00498 12.2188 7.7461C12.2188 7.48722 12.0089 7.27734 11.75 7.27734Z" fill="#87A1FF"/>
<path d="M6.30048 6.6402C6.10177 6.4743 5.80617 6.50083 5.64024 6.69955L4.84871 7.64742L4.66911 7.28899C4.55314 7.05752 4.27152 6.96389 4.04005 7.07989C3.80858 7.19586 3.71499 7.47752 3.83096 7.70895L4.33096 8.70689C4.40174 8.84817 4.53896 8.9443 4.69596 8.96255C4.71408 8.96464 4.73211 8.96567 4.75011 8.96567C4.88808 8.96567 5.02024 8.9047 5.10986 8.79739L6.35986 7.30052C6.52573 7.10177 6.49917 6.80614 6.30048 6.6402Z" fill="#87A1FF"/>
<path d="M5.77251 10.1147C5.56182 9.96426 5.2691 10.013 5.1186 10.2237L4.87504 10.5647L4.63148 10.2237C4.48101 10.013 4.18823 9.96422 3.97757 10.1147C3.76691 10.2652 3.71813 10.5579 3.8686 10.7686L4.29898 11.3711L3.8686 11.9737C3.71813 12.1843 3.76691 12.4771 3.97757 12.6276C4.06016 12.6866 4.15532 12.7149 4.24963 12.7149C4.39588 12.7149 4.53998 12.6467 4.63148 12.5186L4.87504 12.1776L5.1186 12.5186C5.2101 12.6467 5.3542 12.7149 5.50045 12.7149C5.59473 12.7149 5.68992 12.6866 5.77251 12.6276C5.98317 12.4771 6.03195 12.1844 5.88148 11.9737L5.45111 11.3711L5.88148 10.7686C6.03195 10.5579 5.98317 10.2652 5.77251 10.1147Z" fill="#87A1FF"/>
<path d="M13.7487 1.60646V1.33203C13.7487 0.556625 13.3308 0.332031 12.3333 0.332031L3.66667 0.331969C2.66916 0.331969 2.25126 0.556625 2.25126 1.33203V1.60646C0.951839 1.87096 0 2.79387 0 3.87371V13.655C0 14.9473 1.35256 15.9987 3.01508 15.9987H12.9849C14.6474 15.9987 16 14.9473 16 13.655V3.87371C16 2.79387 15.0482 1.87096 13.7487 1.60646ZM3.33333 1.80073C3.33333 1.54226 3.33416 1.33198 3.66667 1.33198H12.3333C12.6658 1.33198 12.6667 1.54226 12.6667 1.80073V2.95698C12.6667 3.21545 12.6658 3.42573 12.3333 3.42573H3.66667C3.33416 3.42573 3.33333 3.21545 3.33333 2.95698V1.80073ZM14.794 13.332C14.794 14.1074 13.9824 14.7382 12.9849 14.7382H3C2.00249 14.7382 1.19095 14.1074 1.19095 13.332V4.33198C1.19095 3.48823 1.66667 3.05714 2.2525 3.05714C2.27831 3.81517 2.6854 4.42567 3.66667 4.42567L12.3333 4.42573C13.3146 4.42573 13.7217 3.81517 13.7475 3.05714C13.7852 3.01948 14.794 3.01948 14.794 4.33198V13.332Z" fill="#87A1FF"/>
</svg>
