<svg width="48" height="48" viewBox="0 0 48 48" fill="none" xmlns="http://www.w3.org/2000/svg">
<circle cx="24" cy="24" r="24" fill="#FFD7D7"/>
<path d="M21.5252 24L14.0126 16.4874C13.3291 15.804 13.3291 14.696 14.0126 14.0126C14.696 13.3291 15.804 13.3291 16.4874 14.0126L24 21.5251L31.5126 14.0126C32.196 13.3291 33.304 13.3291 33.9874 14.0126C34.6709 14.696 34.6709 15.804 33.9874 16.4874L26.4748 24L33.9874 31.5126C34.6709 32.196 34.6709 33.304 33.9874 33.9874C33.304 34.6709 32.196 34.6709 31.5126 33.9874L24 26.4749L16.4874 33.9874C15.804 34.6709 14.696 34.6709 14.0126 33.9874C13.3291 33.304 13.3291 32.196 14.0126 31.5126L21.5252 24Z" fill="#FF0000"/>
</svg>
